<?xml version="1.0" encoding="utf-8"?>
<!-- Generator: Adobe Illustrator 24.0.0, SVG Export Plug-In . SVG Version: 6.00 Build 0)  -->
<svg version="1.1" id="Layer_1" xmlns="http://www.w3.org/2000/svg" xmlns:xlink="http://www.w3.org/1999/xlink" x="0px" y="0px"
	 viewBox="0 0 25.82 25.9" style="enable-background:new 0 0 25.82 25.9;" xml:space="preserve">
<style type="text/css">
	.st0{fill:url(#SVGID_1_);}
	.st1{fill:url(#SVGID_2_);}
	.st2{fill:url(#SVGID_3_);}
	.st3{fill:url(#SVGID_4_);}
	.st4{fill:url(#SVGID_5_);}
</style>
<g>
	<linearGradient id="SVGID_1_" gradientUnits="userSpaceOnUse" x1="18.0116" y1="8.9757" x2="7.335" y2="18.701">
		<stop  offset="0" style="stop-color:#7CC24C"/>
		<stop  offset="0.4609" style="stop-color:#2DB087"/>
		<stop  offset="1" style="stop-color:#5CB574"/>
	</linearGradient>
	<path class="st0" d="M11.41,23.1c0,0.48,0.01,0.96,0,1.43c-0.02,0.87-0.48,1.34-1.36,1.35c-1,0.02-2,0.02-3,0
		c-0.81-0.02-1.25-0.47-1.27-1.29c-0.02-0.89,0.02-1.77-0.02-2.66c-0.04-0.94-0.87-1.75-1.81-1.8c-0.84-0.04-1.68-0.02-2.52-0.04
		c-1.02-0.02-1.41-0.4-1.42-1.41c-0.01-0.93-0.01-1.87,0-2.8c0.01-0.92,0.46-1.39,1.38-1.41c0.98-0.02,1.96-0.02,2.93,0
		c0.86,0.02,1.25,0.41,1.27,1.26c0.03,0.84,0.01,1.68,0.03,2.52c0.04,1.23,0.83,1.98,2.04,1.98c0.82,0,1.64,0,2.46,0.02
		c0.88,0.03,1.27,0.43,1.29,1.32c0.01,0.25,0,0.5,0,0.75S11.41,22.85,11.41,23.1z"/>
	<linearGradient id="SVGID_2_" gradientUnits="userSpaceOnUse" x1="24.5623" y1="16.1672" x2="13.8857" y2="25.8924">
		<stop  offset="0" style="stop-color:#7CC24C"/>
		<stop  offset="0.4609" style="stop-color:#2DB087"/>
		<stop  offset="1" style="stop-color:#5CB574"/>
	</linearGradient>
	<path class="st1" d="M14.47,23c0-0.5-0.01-1,0-1.5c0.02-0.77,0.39-1.19,1.16-1.22c0.89-0.04,1.77-0.02,2.66-0.04
		c1.12-0.02,1.91-0.82,1.92-1.94c0.01-0.84-0.01-1.68,0-2.53c0.01-0.77,0.43-1.25,1.2-1.28c1.07-0.04,2.14-0.04,3.21,0
		c0.72,0.02,1.14,0.43,1.17,1.16c0.04,1.07,0.05,2.14,0.01,3.21c-0.03,0.91-0.42,1.24-1.35,1.26c-0.75,0.01-1.5-0.03-2.25-0.01
		c-1.32,0.03-2.16,0.89-2.17,2.2c-0.01,0.8,0.01,1.59,0,2.39c-0.01,0.72-0.41,1.17-1.13,1.19c-1.11,0.03-2.23,0.03-3.34-0.01
		c-0.66-0.02-1.06-0.49-1.1-1.16c-0.01-0.3,0-0.59,0-0.89C14.47,23.55,14.47,23.28,14.47,23z"/>
	<linearGradient id="SVGID_3_" gradientUnits="userSpaceOnUse" x1="10.8043" y1="1.0633" x2="0.1277" y2="10.7885">
		<stop  offset="0" style="stop-color:#7CC24C"/>
		<stop  offset="0.4609" style="stop-color:#2DB087"/>
		<stop  offset="1" style="stop-color:#5CB574"/>
	</linearGradient>
	<path class="st2" d="M8.62,0.01c0.52,0,1.05-0.02,1.57,0.01c0.73,0.04,1.19,0.47,1.21,1.21c0.03,1.07,0.03,2.14,0,3.2
		c-0.02,0.77-0.43,1.14-1.22,1.16C9.38,5.61,8.58,5.58,7.79,5.6C6.35,5.64,5.62,6.4,5.6,7.82c-0.01,0.75,0.01,1.5,0,2.25
		c-0.02,0.9-0.4,1.31-1.28,1.33c-1,0.03-2,0.02-3,0c-0.84-0.02-1.3-0.49-1.31-1.33c-0.02-1-0.02-2,0-3
		c0.02-0.84,0.44-1.24,1.27-1.25c0.75-0.01,1.5,0.01,2.25,0C4.88,5.8,5.75,4.98,5.81,3.64c0.03-0.79,0-1.59,0.02-2.39
		c0.02-0.82,0.4-1.2,1.22-1.24C7.57-0.01,8.1,0.01,8.62,0.01C8.62,0.01,8.62,0.01,8.62,0.01z"/>
	<linearGradient id="SVGID_4_" gradientUnits="userSpaceOnUse" x1="17.3522" y1="8.2518" x2="6.6756" y2="17.977">
		<stop  offset="0" style="stop-color:#7CC24C"/>
		<stop  offset="0.4609" style="stop-color:#2DB087"/>
		<stop  offset="1" style="stop-color:#5CB574"/>
	</linearGradient>
	<path class="st3" d="M14.48,2.81c0-0.5-0.01-1,0-1.5c0.01-0.79,0.41-1.26,1.19-1.28c1.07-0.04,2.14-0.03,3.21,0
		c0.75,0.02,1.14,0.45,1.16,1.23c0.01,0.77,0.06,1.55-0.01,2.32c-0.1,1.07,1.01,2.3,2.16,2.25c0.79-0.03,1.59-0.02,2.39,0
		c0.85,0.02,1.19,0.34,1.22,1.2c0.03,1.02,0.05,2.05,0.01,3.07c-0.03,0.92-0.44,1.3-1.38,1.31c-0.96,0.02-1.91,0.02-2.87,0
		c-0.89-0.02-1.33-0.48-1.34-1.36c-0.01-0.86,0.01-1.73-0.01-2.59c-0.02-0.86-0.71-1.7-1.57-1.78c-0.9-0.08-1.82-0.05-2.72-0.07
		c-1.09-0.02-1.43-0.35-1.43-1.43C14.48,3.72,14.48,3.26,14.48,2.81z"/>
	<linearGradient id="SVGID_5_" gradientUnits="userSpaceOnUse" x1="17.6816" y1="8.6134" x2="7.005" y2="18.3387">
		<stop  offset="0" style="stop-color:#7CC24C"/>
		<stop  offset="0.4609" style="stop-color:#2DB087"/>
		<stop  offset="1" style="stop-color:#5CB574"/>
	</linearGradient>
	<path class="st4" d="M16.13,12.94c0,0.68,0.01,1.36,0,2.05c-0.02,0.83-0.39,1.19-1.23,1.2c-1.32,0.01-2.64,0.01-3.96,0
		c-0.79-0.01-1.22-0.44-1.23-1.22c-0.01-1.34-0.01-2.68,0-4.02c0.01-0.8,0.42-1.22,1.22-1.23c1.34-0.01,2.68-0.01,4.02,0
		c0.78,0.01,1.15,0.4,1.17,1.19C16.13,11.58,16.12,12.26,16.13,12.94C16.12,12.94,16.12,12.94,16.13,12.94z"/>
</g>
</svg>
